<svg width="500" height="300" xmlns="http://www.w3.org/2000/svg">
  <!-- Background -->
  <rect width="500" height="300" fill="#f5f5f5"/>
  
  <!-- Sun -->
  <circle cx="400" cy="80" r="50" fill="#ffd700"/>
  
  <!-- Mountains -->
  <path d="M0,200 L100,100 L200,150 L300,80 L400,120 L500,90 L500,300 L0,300 Z" fill="#8b4513"/>
  <path d="M0,220 L120,140 L250,180 L350,120 L450,150 L500,130 L500,300 L0,300 Z" fill="#654321"/>
  
  <!-- Lake -->
  <path d="M0,250 L500,250 L500,300 L0,300 Z" fill="#87ceeb"/>
  
  <!-- Trees -->
  <rect x="50" y="220" width="20" height="30" fill="#8b4513"/>
  <circle cx="60" cy="200" r="25" fill="#228b22"/>
  
  <rect x="150" y="230" width="15" height="20" fill="#8b4513"/>
  <circle cx="157.5" cy="215" r="20" fill="#228b22"/>
  
  <rect x="250" y="225" width="18" height="25" fill="#8b4513"/>
  <circle cx="259" cy="205" r="22" fill="#228b22"/>
  
  <!-- Text -->
  <text x="250" y="40" font-family="Arial" font-size="24" font-weight="bold" text-anchor="middle" fill="#333333">Sample Landscape</text>
  <text x="250" y="290" font-family="Arial" font-size="12" text-anchor="middle" fill="#666666">Created on: 2026-04-10</text>
</svg>